<?xml version="1.0" standalone="no"?><!DOCTYPE svg PUBLIC "-//W3C//DTD SVG 1.1//EN" "http://www.w3.org/Graphics/SVG/1.1/DTD/svg11.dtd"><svg t="1618560343726" class="icon" viewBox="0 0 1024 1024" version="1.1" xmlns="http://www.w3.org/2000/svg" p-id="2561" xmlns:xlink="http://www.w3.org/1999/xlink" width="200" height="200"><defs><style type="text/css"></style></defs><path d="M601.773 178.58H287.556c-27.615 0-50 22.395-50 50.02v565.8c0 27.625 22.385 50.02 50 50.02h448.888c27.615 0 50-22.395 50-50.02V385.794l-184.67-207.216zM842 794.4c0 58.32-47.259 105.6-105.556 105.6H287.556C229.259 900 182 852.72 182 794.4V228.6c0-58.32 47.259-105.6 105.556-105.6h326.666c7.92 0 15.463 3.382 20.734 9.296l200 224.416A27.797 27.797 0 0 1 842 375.205V794.4z" fill="#7d7d7d" p-id="2562"></path><path d="M377.556 543.736c-15.342 0-27.778-12.442-27.778-27.79 0-15.347 12.436-27.79 27.778-27.79H651.69c15.342 0 27.778 12.443 27.778 27.79 0 15.348-12.436 27.79-27.778 27.79H377.556zM377.556 710.474c-15.342 0-27.778-12.442-27.778-27.79 0-15.347 12.436-27.79 27.778-27.79H651.69c15.342 0 27.778 12.443 27.778 27.79 0 15.348-12.436 27.79-27.778 27.79H377.556zM569.625 146.16h55.556v185.508l-0.005 0.246c-0.208 11.776 7.401 20.176 15.115 20.181l163.313 0.001v55.58l-163.333-0.001c-39.74-0.027-71.246-34.712-70.646-76.473V146.16z" fill="#7d7d7d" p-id="2563"></path></svg>