<?xml version="1.0" standalone="no"?><!DOCTYPE svg PUBLIC "-//W3C//DTD SVG 1.1//EN" "http://www.w3.org/Graphics/SVG/1.1/DTD/svg11.dtd"><svg t="1618560794084" class="icon" viewBox="0 0 1024 1024" version="1.1" xmlns="http://www.w3.org/2000/svg" p-id="2327" xmlns:xlink="http://www.w3.org/1999/xlink" width="200" height="200"><defs><style type="text/css"></style></defs><path d="M918.539101 500.570626a27.547338 27.547338 0 0 1-27.532359-27.532358v-24.057109a27.532358 27.532358 0 1 1 55.049737 0v24.057109a27.47244 27.47244 0 0 1-27.517378 27.532358z m-231.643301 13.766179H335.940622a27.532358 27.532358 0 0 1 0-55.064716h350.955178a27.532358 27.532358 0 0 1 0 55.064716z m0 214.297016H335.940622a27.532358 27.532358 0 0 1 0-55.064716h350.955178a27.532358 27.532358 0 0 1 0 55.064716z m0 0" p-id="2328" fill="#7d7d7d"></path><path d="M918.539101 533.211001a27.547338 27.547338 0 0 0-27.532359 27.532358v206.02832a201.085079 201.085079 0 0 1-200.860386 200.860387H333.798551A201.085079 201.085079 0 0 1 132.938164 766.771679V359.823054a199.706963 199.706963 0 0 1 152.296782-195.003393 137.811586 137.811586 0 0 0 136.777999 122.397659h179.919017a137.811586 137.811586 0 0 0 136.777999-122.397659 199.706963 199.706963 0 0 1 152.296781 195.003393 27.532358 27.532358 0 0 0 55.049737 0 254.44213 254.44213 0 0 0-209.833119-251.655939 137.811586 137.811586 0 0 0-134.351316-107.70275h-179.754242a137.811586 137.811586 0 0 0-134.351317 107.70275A254.472089 254.472089 0 0 0 77.873448 359.823054v406.948625a256.149795 256.149795 0 0 0 255.925103 255.925103h356.392744a256.149795 256.149795 0 0 0 255.925102-255.925103V560.743359a27.592276 27.592276 0 0 0-27.577296-27.532358zM422.057883 55.469163h179.874079a82.656992 82.656992 0 0 1 82.207607 75.092335 26.513751 26.513751 0 0 0 0 4.179286c0.224693 2.471621 0.389468 5.063078 0.389467 7.369924v3.415331a86.761381 86.761381 0 0 1-86.671504 86.701462H426.072395a86.761381 86.761381 0 0 1-86.671504-86.671503v-3.415331c0-2.366764 0.164775-4.943242 0.389468-7.324985a27.262727 27.262727 0 0 0 0-4.239205 82.74687 82.74687 0 0 1 82.267524-75.107314z m0 0" p-id="2329" fill="#7d7d7d"></path></svg>