<?xml version="1.0" standalone="no"?><!DOCTYPE svg PUBLIC "-//W3C//DTD SVG 1.1//EN" "http://www.w3.org/Graphics/SVG/1.1/DTD/svg11.dtd"><svg t="1618561515081" class="icon" viewBox="0 0 1060 1024" version="1.1" xmlns="http://www.w3.org/2000/svg" p-id="4885" xmlns:xlink="http://www.w3.org/1999/xlink" width="207.03125" height="200"><defs><style type="text/css"></style></defs><path d="M819.273387 122.094933c52.224 0 94.6176 43.178667 94.6176 96.3584v578.1504c0.4096 53.179733-41.984 96.3584-94.242134 96.3584H314.714453c-52.224 0-94.583467-43.178667-94.583466-96.3584v-83.524266H194.428587a25.7024 25.7024 0 1 1 0-51.370667h25.7024v-128.477867H194.428587a25.7024 25.7024 0 0 1 0-51.4048h25.7024V353.348267H194.428587a25.7024 25.7024 0 1 1 0-51.370667h25.7024V218.453333C220.130987 165.2736 262.524587 122.094933 314.714453 122.094933H819.30752zM399.97952 173.499733H314.714453c-22.357333 0-41.130667 17.885867-43.042133 41.0624l-0.170667 3.8912V301.9776h25.7024a25.7024 25.7024 0 0 1 0 51.370667h-25.7024v128.477866h25.7024a25.7024 25.7024 0 0 1 0 51.4048h-25.7024v128.477867h25.7024a25.7024 25.7024 0 1 1 0 51.370667h-25.7024v83.524266c0 23.688533 17.578667 42.871467 39.560534 44.817067l3.652266 0.136533h85.265067V173.499733z m419.293867 0H451.350187v668.0576H819.648853c22.357333 0 40.96-17.783467 42.734934-41.028266l0.136533-3.925334V218.453333c0-23.688533-17.578667-42.871467-39.560533-44.817066l-3.6864-0.136534z m-161.553067 337.646934l88.405333 50.722133a26.965333 26.965333 0 0 1 13.585067 23.415467v101.444266a26.965333 26.965333 0 0 1-13.6192 23.415467l-88.405333 50.722133a27.374933 27.374933 0 0 1-27.204267 0l-88.405333-50.722133a27.0336 27.0336 0 0 1-13.6192-23.415467V585.284267a26.965333 26.965333 0 0 1 13.653333-23.415467l88.3712-50.722133a27.374933 27.374933 0 0 1 27.2384 0z m-13.653333 51.438933l-64.238934 36.864v73.079467l64.273067 36.864 64.2048-36.829867v-73.147733l-64.238933-36.864z" p-id="4886" fill="#7d7d7d"></path></svg>