<?xml version="1.0" standalone="no"?><!DOCTYPE svg PUBLIC "-//W3C//DTD SVG 1.1//EN" "http://www.w3.org/Graphics/SVG/1.1/DTD/svg11.dtd"><svg t="1618561674317" class="icon" viewBox="0 0 1024 1024" version="1.1" xmlns="http://www.w3.org/2000/svg" p-id="5735" xmlns:xlink="http://www.w3.org/1999/xlink" width="200" height="200"><defs><style type="text/css"></style></defs><path d="M935.48 53.6H88.52C69.2 53.6 50 73.16 50 92.72v625.56c0 19.56 19.2 39.12 38.52 39.12h327.24c11.52 0 19.2-7.8 19.2-19.56s-7.68-19.56-19.2-19.56H88.52V92.72h846.96v625.56H550.52c-19.2 0-38.52 19.56-38.52 39.12v195.48H338.72c-11.52 0-19.2 7.8-19.2 19.56s7.68 19.56 19.2 19.56h384.96c11.52 0 19.2-7.8 19.2-19.56s-7.68-19.56-19.2-19.56H550.52V757.4h384.96c19.2 0 38.52-19.56 38.52-39.12V92.72c0-19.56-19.2-39.12-38.52-39.12z" fill="#7d7d7d" p-id="5736"></path><path d="M627.44 405.44c-11.52 0-23.04 7.8-30.84 15.6l-38.52 58.68-88.56-207.24c-3.84-15.6-19.2-23.4-34.68-23.4s-27 7.8-34.68 23.4l-65.4 132.96h-169.2v39.12h192.48l77.04-156.36 100.08 242.4c7.68 15.6 23.16 15.6 34.68 3.96l57.72-89.88h231v-39.12H627.44v-0.12z" fill="#7d7d7d" p-id="5737"></path></svg>